<?xml version="1.0" encoding="UTF-8" standalone="no"?>
<!-- Created with Inkscape (http://www.inkscape.org/) -->

<svg
   width="177.82271mm"
   height="101.20349mm"
   viewBox="0 0 177.82271 101.20349"
   version="1.1"
   id="svg1"
   xml:space="preserve"
   xmlns="http://www.w3.org/2000/svg"
   xmlns:svg="http://www.w3.org/2000/svg"><defs
     id="defs1" /><rect
     style="fill:#000050;fill-opacity:0.964706;stroke-width:2.14358"
     id="rect1-1-5"
     width="177.82271"
     height="101.2035"
     x="-1.3004702e-05"
     y="-1.8674153e-06"
     ry="7.3636675" /><path
     style="fill:#ffffff;fill-opacity:1;stroke-width:0.639307"
     d="m 50.688665,65.367531 c -8.70233,-1.849808 -14.71965,-9.813866 -14.32061,-18.953666 0.57029,-13.06216 13.99267,-21.18654 25.73822,-15.579 5.56738,2.65796 9.15523,7.67436 9.91284,13.85972 0.23854,1.94749 0.0607,2.56818 -0.95864,3.34619 l -0.63868,0.48746 -5.42638,0.0846 -5.42639,0.0846 -1.0149,0.49612 c -1.54293,0.75422 -2.74689,2.06677 -3.73397,4.07074 -1.00999,2.0505 -1.49115,2.45286 -2.93319,2.45286 -1.16218,0 -2.04278,-0.52517 -2.551,-1.52136 -0.40035,-0.78476 -0.42423,-1.55632 -0.10035,-3.24224 0.57636,-3.00019 2.01234,-5.26642 4.4457,-7.01611 2.17487,-1.56383 4.6581,-2.17311 8.3798,-2.05604 l 2.32294,0.0731 -0.32849,-0.51896 c -1.63973,-2.59047 -4.02907,-4.34906 -6.93921,-5.10737 -1.42918,-0.37241 -3.95906,-0.36639 -5.4128,0.0129 -2.10981,0.55043 -3.50208,1.35854 -5.08286,2.95025 -2.35554,2.37184 -3.37463,4.83164 -3.37463,8.14546 0,3.18039 1.09699,5.6988 3.53511,8.11566 2.31292,2.292775 4.67377,3.273072 7.88251,3.273072 3.22432,0 5.46516,-0.927989 7.92933,-3.283762 0.86499,-0.82693 1.78032,-1.58245 2.03406,-1.67892 0.60154,-0.2287 5.436,-0.22895 5.86324,-3e-4 0.50057,0.26789 0.39842,0.95411 -0.34503,2.31792 -2.71303,4.97687 -7.29211,8.326422 -12.6705,9.268344 -1.92429,0.337004 -4.99149,0.300327 -6.78612,-0.08115 z m 53.170775,-6.621888 c -2.63537,-0.440218 -5.125815,-2.199408 -6.247595,-4.413148 -1.24202,-2.451 -1.21565,-6.01476 0.0636,-8.59088 1.01043,-2.03485 3.625465,-3.97366 5.937965,-4.40245 3.79951,-0.70453 7.20156,0.87681 8.81304,4.09646 0.37637,0.75195 0.66398,1.38328 0.63914,1.40295 -0.0248,0.0197 -1.05371,0.0847 -2.28639,0.1445 -1.87943,0.0912 -2.24124,0.0697 -2.24124,-0.13269 0,-0.41037 -0.88174,-1.3147 -1.59993,-1.64092 -0.77064,-0.35006 -2.05111,-0.40602 -3.03562,-0.13267 -0.92911,0.25797 -2.32803,1.69403 -2.69265,2.76412 -0.39935,1.17203 -0.37545,3.23279 0.0505,4.35377 0.1853,0.4877 0.65161,1.2027 1.04735,1.60592 1.81877,1.8532 5.1906,1.58643 6.31493,-0.49961 l 0.33831,-0.62767 2.08348,-4.5e-4 c 2.41646,-5.4e-4 2.31261,-0.15961 1.28706,1.9715 -0.98272,2.04206 -2.83358,3.43721 -5.34558,4.02941 -1.17482,0.27696 -1.81096,0.291581 -3.12633,0.07186 z m 34.04428,-0.241287 c -3.09782,-0.850563 -5.7065,-3.392861 -6.35127,-6.189641 -0.25631,-1.11177 -0.21366,-3.66799 0.08,-4.79546 0.95361,-3.66117 4.55603,-6.34904 8.50929,-6.34904 2.75844,0 5.63,1.58784 7.16412,3.96142 0.95611,1.47928 1.321,2.83373 1.31858,4.89449 -0.003,2.84976 -0.60709,4.43545 -2.36478,6.21078 -1.71724,1.73447 -3.681,2.531945 -6.17528,2.507766 -0.74426,-0.0072 -1.72556,-0.115356 -2.18067,-0.240315 z m 3.65833,-3.664931 c 0.95637,-0.28653 2.20482,-1.47335 2.67467,-2.54262 0.50154,-1.1414 0.54854,-3.02956 0.10714,-4.30486 -1.18539,-3.42487 -5.69882,-4.2523 -7.84518,-1.43823 -1.59608,2.0926 -1.34744,5.84008 0.4904,7.39144 1.22907,1.03747 2.96315,1.37658 4.57297,0.89427 z m -61.103005,-7.83354 v -11.41761 h 7.28505 7.28504 l -0.0539,1.87072 -0.0539,1.87072 -5.03221,-0.0147 -5.03221,-0.0147 v 2.88018 2.88018 h 4.56704 4.56705 v 1.86065 1.86066 h -4.56705 -4.56704 v 2.87554 2.87555 h 5.15907 5.15908 v 1.94523 1.945221 h -7.35802 -7.35802 z m 34.168285,-0.25372 v -11.67134 h 2.11437 2.11437 v 4.34853 4.34854 l 0.71889,-0.68578 c 0.91438,-0.87228 1.66689,-1.31286 2.82168,-1.65205 3.18793,-0.93636 6.1828,0.76381 7.04398,3.99882 0.18205,0.68385 0.2375,2.29317 0.23904,6.93751 l 0.002,6.047114 h -2.0298 -2.0298 l -0.004,-5.455084 c -0.004,-6.15749 -0.0459,-6.39743 -1.27561,-7.33537 -0.57751,-0.44048 -0.7665,-0.48782 -1.94794,-0.48782 -1.20913,0 -1.35768,0.0396 -1.95839,0.52258 -0.35751,0.28741 -0.84031,0.85829 -1.07289,1.26862 l -0.42287,0.74605 -0.0511,5.37052 -0.0511,5.370504 h -2.10559 -2.10558 z"
     id="path1-1" /><rect
     style="opacity:1;fill:#000050;fill-opacity:0.964706;stroke-width:1.471"
     id="rect5"
     width="52.609779"
     height="43.191982"
     x="19.409351"
     y="23.098593"
     ry="6.1668653" /><path
     style="fill:#171fab;fill-opacity:1;stroke-width:0.670622"
     d="m 50.105595,65.84864 c -9.12858,-1.940409 -15.44062,-10.294545 -15.02204,-19.882019 0.59822,-13.70196 14.67804,-22.224271 26.99889,-16.34208 5.84007,2.788161 9.60367,8.050267 10.39838,14.538589 0.25022,2.042869 0.0638,2.693979 -1.00559,3.510098 l -0.66996,0.511327 -5.69217,0.08878 -5.69217,0.08878 -1.06462,0.520416 c -1.6185,0.791168 -2.88145,2.168016 -3.91686,4.270133 -1.05946,2.150927 -1.5642,2.573007 -3.07686,2.573007 -1.21911,0 -2.14284,-0.550897 -2.67595,-1.595879 -0.41998,-0.823194 -0.44502,-1.632542 -0.10529,-3.401051 0.60459,-3.147144 2.11089,-5.524374 4.66346,-7.359771 2.28139,-1.640419 4.88623,-2.279546 8.79023,-2.156744 l 2.43672,0.07666 -0.34456,-0.544382 c -1.72005,-2.717352 -4.22643,-4.562078 -7.27911,-5.357533 -1.49918,-0.390645 -4.15298,-0.384343 -5.67792,0.01363 -2.21314,0.577393 -3.6736,1.425084 -5.33181,3.094756 -2.47093,2.488004 -3.53995,5.068299 -3.53995,8.544432 0,3.336164 1.15074,5.977922 3.70828,8.513177 2.42621,2.405075 4.90268,3.433378 8.2686,3.433378 3.38227,0 5.73285,-0.973431 8.31772,-3.444589 0.90736,-0.867446 1.86752,-1.659962 2.13367,-1.76116 0.63101,-0.239908 5.70229,-0.240166 6.15044,-3.19e-4 0.52507,0.281009 0.41793,1.000837 -0.36193,2.431451 -2.84591,5.220642 -7.64928,8.734252 -13.29112,9.722318 -2.01852,0.353514 -5.23597,0.315034 -7.11851,-0.08514 z"
     id="path1-2" /></svg>
