<?xml version="1.0" encoding="UTF-8" standalone="no"?>
<!-- Created with Inkscape (http://www.inkscape.org/) -->

<svg
   width="177.82271mm"
   height="101.2035mm"
   viewBox="0 0 177.82271 101.2035"
   version="1.1"
   id="svg1"
   xml:space="preserve"
   xmlns="http://www.w3.org/2000/svg"
   xmlns:svg="http://www.w3.org/2000/svg"><defs
     id="defs1" /><rect
     style="fill:#008000;stroke-width:2.14358"
     id="rect1"
     width="177.82271"
     height="101.2035"
     x="-2.6528699e-06"
     y="-3.9659822e-06"
     ry="7.3636675" /><g
     id="layer1-5"
     transform="matrix(0.82796497,0,0,0.82796497,-18.441309,-84.044141)"><path
       style="fill:#ffffff;fill-opacity:1"
       d="m 153.426,21.664 c 6.144,0 11.008,2.08 14.592,6.24 3.648,4.096 5.472,9.664 5.472,16.704 V 76 H 154.674 V 47.104 c 0,-3.072 -0.8,-5.472 -2.4,-7.2 -1.6,-1.792 -3.744,-2.688 -6.432,-2.688 -2.816,0 -5.024,0.896 -6.624,2.688 -1.6,1.728 -2.4,4.128 -2.4,7.2 V 76 H 118.002 V 4.96 h 18.816 v 24.864 c 1.664,-2.432 3.904,-4.384 6.72,-5.856 2.88,-1.536 6.176,-2.304 9.888,-2.304 z m 50.837,16.128 h -8.448 V 76 H 176.903 V 37.792 h -5.856 V 22.144 h 5.856 v -0.48 c 0,-6.912 2.016,-12.192 6.048,-15.84 4.096,-3.712 9.952,-5.568003 17.568,-5.568003 1.536,0 2.72,0.031999 3.552,0.095998 V 16.384 c -0.512,-0.064 -1.216,-0.096 -2.112,-0.096 -2.048,0 -3.552,0.48 -4.512,1.44 -0.96,0.896 -1.504,2.368 -1.632,4.416 h 8.448 z"
       id="path3-3"
       transform="matrix(0.43408899,0,0,0.43408899,77.639233,138.21093)" /><path
       style="fill:#ffffff;fill-opacity:1"
       d="m 58.3203,49.024 c 0,-5.568 0.992,-10.432 2.976,-14.592 2.048,-4.16 4.8,-7.36 8.256,-9.6 3.52,-2.24 7.424,-3.36 11.712,-3.36 3.712,0 6.912,0.736 9.6,2.208 2.688,1.472 4.768,3.456 6.24,5.952 V 22.144 H 115.92 V 76 H 97.1043 v -7.488 c -1.472,2.496 -3.584,4.48 -6.336,5.952 -2.688,1.472 -5.856,2.208 -9.504,2.208 -4.288,0 -8.192,-1.12 -11.712,-3.36 -3.456,-2.24 -6.208,-5.44 -8.256,-9.6 -1.984,-4.224 -2.976,-9.12 -2.976,-14.688 z m 38.784,0 c 0,-3.456 -0.96,-6.176 -2.88,-8.16 -1.856,-1.984 -4.16,-2.976 -6.912,-2.976 -2.816,0 -5.152,0.992 -7.008,2.976 -1.856,1.92 -2.784,4.64 -2.784,8.16 0,3.456 0.928,6.208 2.784,8.256 1.856,1.984 4.192,2.976 7.008,2.976 2.752,0 5.056,-0.992 6.912,-2.976 1.92,-1.984 2.88,-4.736 2.88,-8.256 z"
       id="path2-5"
       transform="matrix(0.43408899,0,0,0.43408899,77.639233,138.21093)" /><path
       style="fill:#4caf50;fill-opacity:1"
       d="M 40.408,76 19.192,46.336 V 76 H 0.376 V 8.32 H 19.192 V 37.504 L 40.216,8.32 H 61.912 L 37.048,41.152 63.16,76 Z"
       id="path1-6"
       transform="matrix(0.43408899,0,0,0.43408899,77.639233,138.21093)" /><rect
       style="fill:#ffffff;fill-opacity:1;stroke-width:2.65499"
       id="rect4-2"
       width="8.1678181"
       height="29.379143"
       x="77.802452"
       y="141.82254"
       ry="1.0113597e-05" /></g><text
     xml:space="preserve"
     style="font-style:normal;font-variant:normal;font-weight:bold;font-stretch:normal;font-size:16.222px;font-family:'Noto Kufi Arabic';-inkscape-font-specification:'Noto Kufi Arabic, Bold';font-variant-ligatures:normal;font-variant-caps:normal;font-variant-numeric:normal;font-variant-east-asian:normal;text-align:start;letter-spacing:-0.41763px;writing-mode:lr-tb;direction:ltr;text-anchor:start;fill:#ffffff;stroke-width:17.8607"
     x="87.197983"
     y="71.363785"
     id="text1"><tspan
       id="tspan1"
       style="font-style:normal;font-variant:normal;font-weight:bold;font-stretch:normal;font-size:16.222px;font-family:'Noto Kufi Arabic';-inkscape-font-specification:'Noto Kufi Arabic, Bold';font-variant-ligatures:normal;font-variant-caps:normal;font-variant-numeric:normal;font-variant-east-asian:normal;fill:#ffffff;stroke-width:17.8607"
       x="87.197983"
       y="71.363785">کہف</tspan></text></svg>
